<svg xmlns="http://www.w3.org/2000/svg" xmlns:xlink="http://www.w3.org/1999/xlink" width="500" zoomAndPan="magnify" viewBox="0 0 375 149.999998" height="200" preserveAspectRatio="xMidYMid meet" version="1.0"><defs><g/></defs><g fill="#fdfdfd" fill-opacity="1"><g transform="translate(171.824408, 106.484341)"><g><path d="M 7.703125 5.625 C 5.484375 5.625 3.703125 5.328125 2.359375 4.734375 C 1.023438 4.148438 0.359375 3.285156 0.359375 2.140625 C 0.359375 0.535156 1.359375 -0.84375 3.359375 -2 C 5.359375 -3.164062 8.265625 -4.164062 12.078125 -5 C 13.117188 -5.238281 13.78125 -5.359375 14.0625 -5.359375 C 14.300781 -5.359375 14.488281 -5.304688 14.625 -5.203125 C 14.769531 -5.097656 14.84375 -4.992188 14.84375 -4.890625 C 14.84375 -4.679688 14.648438 -4.523438 14.265625 -4.421875 C 11.910156 -3.691406 9.863281 -2.960938 8.125 -2.234375 C 6.382812 -1.503906 5.0625 -0.8125 4.15625 -0.15625 C 3.257812 0.5 2.8125 1.085938 2.8125 1.609375 C 2.8125 2.335938 3.375 2.910156 4.5 3.328125 C 5.632812 3.742188 7.085938 3.953125 8.859375 3.953125 C 10.691406 3.953125 12.613281 3.726562 14.625 3.28125 C 16.644531 2.832031 18.519531 2.128906 20.25 1.171875 C 21.988281 0.210938 23.347656 -0.941406 24.328125 -2.296875 C 24.878906 -3.054688 25.15625 -3.765625 25.15625 -4.421875 C 25.15625 -5.046875 24.925781 -5.617188 24.46875 -6.140625 C 24.019531 -6.660156 23.25 -7.195312 22.15625 -7.75 C 21.0625 -8.3125 19.523438 -8.972656 17.546875 -9.734375 C 15.359375 -10.566406 13.601562 -11.304688 12.28125 -11.953125 C 10.96875 -12.597656 9.84375 -13.40625 8.90625 -14.375 C 7.96875 -15.34375 7.5 -16.488281 7.5 -17.8125 C 7.5 -20.90625 9.140625 -23.828125 12.421875 -26.578125 C 15.703125 -29.335938 19.664062 -31.5625 24.3125 -33.25 C 28.96875 -34.9375 33.082031 -35.78125 36.65625 -35.78125 C 38.8125 -35.78125 40.425781 -35.429688 41.5 -34.734375 C 42.582031 -34.035156 43.125 -33.113281 43.125 -31.96875 C 43.125 -30.269531 42.4375 -28.535156 41.0625 -26.765625 C 39.6875 -24.992188 37.851562 -23.421875 35.5625 -22.046875 C 33.269531 -20.679688 30.84375 -19.722656 28.28125 -19.171875 C 27.445312 -18.960938 26.835938 -18.859375 26.453125 -18.859375 C 26.242188 -18.859375 26.140625 -18.910156 26.140625 -19.015625 C 26.140625 -19.179688 26.273438 -19.378906 26.546875 -19.609375 C 26.828125 -19.835938 27.125 -20.003906 27.4375 -20.109375 C 28.550781 -20.523438 30.226562 -21.414062 32.46875 -22.78125 C 34.707031 -24.15625 36.703125 -25.613281 38.453125 -27.15625 C 40.210938 -28.695312 41.09375 -30.007812 41.09375 -31.09375 C 41.09375 -31.75 40.664062 -32.285156 39.8125 -32.703125 C 38.957031 -33.117188 37.628906 -33.328125 35.828125 -33.328125 C 32.734375 -33.328125 29.296875 -32.613281 25.515625 -31.1875 C 21.734375 -29.769531 18.53125 -27.890625 15.90625 -25.546875 C 13.289062 -23.203125 11.984375 -20.726562 11.984375 -18.125 C 11.984375 -17.082031 12.3125 -16.132812 12.96875 -15.28125 C 13.625 -14.4375 14.691406 -13.625 16.171875 -12.84375 C 17.648438 -12.0625 19.65625 -11.269531 22.1875 -10.46875 C 24.195312 -9.8125 25.765625 -9.222656 26.890625 -8.703125 C 28.023438 -8.179688 28.84375 -7.648438 29.34375 -7.109375 C 29.84375 -6.566406 30.09375 -5.96875 30.09375 -5.3125 C 30.09375 -4.300781 29.46875 -3.117188 28.21875 -1.765625 C 26.832031 -0.273438 24.957031 1.03125 22.59375 2.15625 C 20.238281 3.289062 17.738281 4.148438 15.09375 4.734375 C 12.457031 5.328125 9.992188 5.625 7.703125 5.625 Z M 7.703125 5.625 "/></g></g></g><g fill="#fdfdfd" fill-opacity="1"><g transform="translate(202.133877, 106.484341)"><g><path d="M 12.859375 0.671875 C 12.234375 0.671875 11.726562 0.421875 11.34375 -0.078125 C 10.96875 -0.578125 10.78125 -1.296875 10.78125 -2.234375 C 10.78125 -3.484375 11.03125 -4.835938 11.53125 -6.296875 C 12.039062 -7.753906 12.625 -9.109375 13.28125 -10.359375 C 12.789062 -9.835938 11.972656 -8.765625 10.828125 -7.140625 C 9.265625 -4.847656 7.894531 -3.039062 6.71875 -1.71875 C 5.539062 -0.394531 4.445312 0.265625 3.4375 0.265625 C 2.675781 0.265625 1.984375 0.00390625 1.359375 -0.515625 C 0.734375 -1.035156 0.421875 -1.867188 0.421875 -3.015625 C 0.421875 -4.097656 0.722656 -5.375 1.328125 -6.84375 C 1.929688 -8.320312 2.828125 -9.960938 4.015625 -11.765625 C 4.847656 -13.054688 5.878906 -14.226562 7.109375 -15.28125 C 8.335938 -16.34375 9.617188 -17.175781 10.953125 -17.78125 C 12.296875 -18.394531 13.554688 -18.703125 14.734375 -18.703125 C 15.148438 -18.703125 15.710938 -18.613281 16.421875 -18.4375 C 17.140625 -18.257812 17.765625 -18.015625 18.296875 -17.703125 C 18.835938 -17.390625 19.109375 -17.023438 19.109375 -16.609375 C 19.109375 -16.472656 19.070312 -16.359375 19 -16.265625 C 18.9375 -16.179688 18.851562 -16.140625 18.75 -16.140625 C 18.644531 -16.140625 18.472656 -16.210938 18.234375 -16.359375 C 17.398438 -16.835938 16.617188 -17.078125 15.890625 -17.078125 C 14.640625 -17.078125 13.265625 -16.609375 11.765625 -15.671875 C 10.273438 -14.734375 8.710938 -13.15625 7.078125 -10.9375 C 5.378906 -8.613281 4.222656 -6.800781 3.609375 -5.5 C 3.003906 -4.195312 2.703125 -3.195312 2.703125 -2.5 C 2.703125 -1.976562 2.894531 -1.71875 3.28125 -1.71875 C 3.695312 -1.71875 4.253906 -1.992188 4.953125 -2.546875 C 6.441406 -3.765625 7.84375 -5.160156 9.15625 -6.734375 C 10.476562 -8.316406 11.59375 -9.8125 12.5 -11.21875 C 13.40625 -12.625 14.046875 -13.765625 14.421875 -14.640625 C 14.460938 -14.773438 14.585938 -14.84375 14.796875 -14.84375 C 15.066406 -14.84375 15.375 -14.71875 15.71875 -14.46875 C 16.070312 -14.226562 16.378906 -13.925781 16.640625 -13.5625 C 16.898438 -13.195312 17.03125 -12.804688 17.03125 -12.390625 C 17.03125 -12.078125 16.960938 -11.800781 16.828125 -11.5625 C 15.992188 -10.101562 15.304688 -8.703125 14.765625 -7.359375 C 14.222656 -6.023438 13.953125 -4.804688 13.953125 -3.703125 C 13.953125 -2.691406 14.265625 -2.1875 14.890625 -2.1875 C 15.410156 -2.1875 16.046875 -2.539062 16.796875 -3.25 C 17.546875 -3.96875 18.578125 -5.175781 19.890625 -6.875 C 20.867188 -8.09375 21.492188 -8.859375 21.765625 -9.171875 C 22.046875 -9.484375 22.273438 -9.640625 22.453125 -9.640625 C 22.585938 -9.640625 22.695312 -9.601562 22.78125 -9.53125 C 22.875 -9.457031 22.921875 -9.367188 22.921875 -9.265625 C 22.921875 -9.128906 22.691406 -8.710938 22.234375 -8.015625 C 21.441406 -6.734375 20.5 -5.429688 19.40625 -4.109375 C 18.3125 -2.796875 17.179688 -1.671875 16.015625 -0.734375 C 14.847656 0.203125 13.796875 0.671875 12.859375 0.671875 Z M 12.859375 0.671875 "/></g></g></g><g fill="#fdfdfd" fill-opacity="1"><g transform="translate(221.350703, 106.484341)"><g><path d="M 5.46875 0.421875 C 4.976562 0.421875 4.523438 0.34375 4.109375 0.1875 C 3.691406 0.03125 3.484375 -0.148438 3.484375 -0.359375 C 3.484375 -0.460938 3.570312 -0.65625 3.75 -0.9375 C 3.925781 -1.21875 4.203125 -1.671875 4.578125 -2.296875 C 6.421875 -5.421875 7.785156 -7.894531 8.671875 -9.71875 C 9.554688 -11.539062 10.296875 -13.40625 10.890625 -15.3125 C 11.023438 -15.726562 11.09375 -16.023438 11.09375 -16.203125 C 11.09375 -16.578125 10.847656 -16.765625 10.359375 -16.765625 C 9.910156 -16.765625 9.335938 -16.375 8.640625 -15.59375 C 7.953125 -14.8125 6.984375 -13.503906 5.734375 -11.671875 L 2.03125 -6.359375 C 1.75 -5.972656 1.554688 -5.78125 1.453125 -5.78125 C 1.347656 -5.78125 1.269531 -5.863281 1.21875 -6.03125 C 1.164062 -6.207031 1.140625 -6.398438 1.140625 -6.609375 C 1.140625 -6.921875 1.175781 -7.128906 1.25 -7.234375 C 2.84375 -9.566406 3.9375 -11.21875 4.53125 -12.1875 L 8.4375 -18.484375 C 8.539062 -18.660156 8.789062 -18.800781 9.1875 -18.90625 C 9.59375 -19.007812 9.96875 -19.0625 10.3125 -19.0625 C 10.863281 -19.0625 11.453125 -18.929688 12.078125 -18.671875 C 12.703125 -18.410156 13.222656 -18.050781 13.640625 -17.59375 C 14.054688 -17.144531 14.265625 -16.660156 14.265625 -16.140625 C 14.265625 -15.722656 14.070312 -15.0625 13.6875 -14.15625 C 13.3125 -13.257812 12.707031 -11.960938 11.875 -10.265625 C 11.738281 -9.953125 11.53125 -9.523438 11.25 -8.984375 C 10.96875 -8.441406 10.773438 -8.015625 10.671875 -7.703125 C 13.421875 -10.765625 15.191406 -12.675781 15.984375 -13.4375 C 16.546875 -13.957031 17.21875 -14.457031 18 -14.9375 C 18.78125 -15.425781 19.515625 -15.671875 20.203125 -15.671875 C 20.867188 -15.671875 21.390625 -15.453125 21.765625 -15.015625 C 22.148438 -14.585938 22.34375 -13.941406 22.34375 -13.078125 C 22.34375 -12.660156 22.253906 -11.878906 22.078125 -10.734375 C 22.046875 -10.484375 21.953125 -9.71875 21.796875 -8.4375 C 21.640625 -7.15625 21.5625 -6.023438 21.5625 -5.046875 C 21.5625 -4.179688 21.640625 -3.503906 21.796875 -3.015625 C 21.953125 -2.535156 22.1875 -2.296875 22.5 -2.296875 C 22.945312 -2.296875 23.640625 -2.789062 24.578125 -3.78125 C 25.515625 -4.769531 26.695312 -6.148438 28.125 -7.921875 C 29.019531 -9.066406 29.570312 -9.640625 29.78125 -9.640625 C 29.882812 -9.640625 29.988281 -9.601562 30.09375 -9.53125 C 30.195312 -9.457031 30.25 -9.351562 30.25 -9.21875 C 30.25 -8.976562 29.765625 -8.1875 28.796875 -6.84375 C 27.828125 -5.507812 26.992188 -4.441406 26.296875 -3.640625 C 25.328125 -2.535156 24.398438 -1.625 23.515625 -0.90625 C 22.628906 -0.195312 21.804688 0.15625 21.046875 0.15625 C 20.109375 0.15625 19.457031 -0.300781 19.09375 -1.21875 C 18.726562 -2.144531 18.546875 -3.390625 18.546875 -4.953125 C 18.546875 -6.023438 18.597656 -7.082031 18.703125 -8.125 C 18.765625 -9.445312 18.796875 -10.367188 18.796875 -10.890625 C 18.796875 -11.679688 18.734375 -12.242188 18.609375 -12.578125 C 18.492188 -12.910156 18.296875 -13.078125 18.015625 -13.078125 C 17.046875 -13.078125 15.546875 -11.832031 13.515625 -9.34375 C 11.484375 -6.863281 9.53125 -4.234375 7.65625 -1.453125 L 6.71875 -0.046875 C 6.613281 0.160156 6.457031 0.289062 6.25 0.34375 C 6.039062 0.394531 5.78125 0.421875 5.46875 0.421875 Z M 5.46875 0.421875 "/></g></g></g><g fill="#fdfdfd" fill-opacity="1"><g transform="translate(247.754316, 106.484341)"><g/></g></g><g fill="#fdfdfd" fill-opacity="1"><g transform="translate(258.169938, 106.484341)"><g><path d="M 3.59375 18.015625 C 2.582031 18.015625 1.816406 17.789062 1.296875 17.34375 C 0.773438 16.894531 0.515625 16.234375 0.515625 15.359375 C 0.515625 13.691406 1.488281 11.488281 3.4375 8.75 C 5.382812 6.007812 8.300781 2.898438 12.1875 -0.578125 C 15.03125 -3.078125 18.460938 -5.566406 22.484375 -8.046875 C 26.515625 -10.523438 30.476562 -12.703125 34.375 -14.578125 C 36 -17.328125 37.347656 -20.019531 38.421875 -22.65625 C 39.503906 -25.289062 40.046875 -27.613281 40.046875 -29.625 C 40.046875 -31.394531 39.523438 -32.785156 38.484375 -33.796875 C 37.441406 -34.804688 35.738281 -35.3125 33.375 -35.3125 C 30.53125 -35.3125 27.15625 -34.613281 23.25 -33.21875 C 19.34375 -31.832031 15.582031 -30.0625 11.96875 -27.90625 C 8.363281 -25.757812 5.585938 -23.59375 3.640625 -21.40625 C 3.367188 -21.09375 3.234375 -20.882812 3.234375 -20.78125 C 3.234375 -20.707031 3.316406 -20.671875 3.484375 -20.671875 C 3.660156 -20.671875 3.945312 -20.695312 4.34375 -20.75 C 4.75 -20.800781 5.070312 -20.828125 5.3125 -20.828125 C 5.488281 -20.828125 5.609375 -20.816406 5.671875 -20.796875 C 5.742188 -20.785156 5.78125 -20.742188 5.78125 -20.671875 L 5.3125 -20.46875 C 4.34375 -19.945312 3.492188 -19.6875 2.765625 -19.6875 C 2.347656 -19.6875 1.960938 -19.847656 1.609375 -20.171875 C 1.265625 -20.503906 0.988281 -20.863281 0.78125 -21.25 C 0.570312 -21.632812 0.46875 -21.894531 0.46875 -22.03125 C 0.46875 -23.59375 1.941406 -25.351562 4.890625 -27.3125 C 7.847656 -29.269531 11.441406 -31.054688 15.671875 -32.671875 C 19.910156 -34.285156 23.75 -35.390625 27.1875 -35.984375 C 29.71875 -36.398438 31.9375 -36.609375 33.84375 -36.609375 C 37.351562 -36.609375 39.894531 -35.957031 41.46875 -34.65625 C 43.050781 -33.351562 43.84375 -31.554688 43.84375 -29.265625 C 43.84375 -25.972656 42.351562 -21.648438 39.375 -16.296875 C 40.3125 -16.503906 41.144531 -16.609375 41.875 -16.609375 C 43.15625 -16.609375 43.796875 -16.296875 43.796875 -15.671875 C 43.796875 -15.398438 43.734375 -15.1875 43.609375 -15.03125 C 43.492188 -14.875 43.347656 -14.796875 43.171875 -14.796875 C 43.066406 -14.796875 42.953125 -14.847656 42.828125 -14.953125 C 42.710938 -15.054688 42.582031 -15.140625 42.4375 -15.203125 C 42.300781 -15.273438 42.113281 -15.3125 41.875 -15.3125 C 41.414062 -15.3125 40.804688 -15.195312 40.046875 -14.96875 C 39.285156 -14.75 38.78125 -14.535156 38.53125 -14.328125 C 36.832031 -11.160156 34.609375 -7.625 31.859375 -3.71875 C 29.117188 0.1875 26.066406 3.703125 22.703125 6.828125 C 19.992188 9.328125 17.425781 11.414062 15 13.09375 C 12.570312 14.78125 10.382812 16.019531 8.4375 16.8125 C 6.488281 17.613281 4.875 18.015625 3.59375 18.015625 Z M 4.796875 15.15625 C 5.660156 15.15625 6.8125 14.832031 8.25 14.1875 C 9.695312 13.550781 11.347656 12.597656 13.203125 11.328125 C 15.054688 10.054688 17.007812 8.519531 19.0625 6.71875 C 22.050781 4.039062 24.632812 1.164062 26.8125 -1.90625 C 29 -4.976562 31.1875 -8.507812 33.375 -12.5 C 29.769531 -10.726562 26.25 -8.703125 22.8125 -6.421875 C 19.375 -4.148438 16.265625 -1.765625 13.484375 0.734375 C 10.015625 3.859375 7.425781 6.539062 5.71875 8.78125 C 4.019531 11.019531 3.171875 12.691406 3.171875 13.796875 C 3.171875 14.253906 3.3125 14.59375 3.59375 14.8125 C 3.875 15.039062 4.273438 15.15625 4.796875 15.15625 Z M 4.796875 15.15625 "/></g></g></g><g fill="#fdfdfd" fill-opacity="1"><g transform="translate(298.999194, 106.484341)"><g><path d="M 4.328125 1.359375 C 3.347656 1.359375 2.53125 1.0625 1.875 0.46875 C 1.21875 -0.125 0.890625 -1.097656 0.890625 -2.453125 C 0.890625 -3.910156 1.296875 -5.671875 2.109375 -7.734375 C 2.921875 -9.796875 3.976562 -11.75 5.28125 -13.59375 C 6.582031 -15.4375 7.894531 -16.789062 9.21875 -17.65625 C 9.394531 -17.757812 9.539062 -17.835938 9.65625 -17.890625 C 9.78125 -17.941406 9.910156 -17.96875 10.046875 -17.96875 C 10.296875 -17.96875 10.578125 -17.90625 10.890625 -17.78125 C 11.203125 -17.664062 11.476562 -17.519531 11.71875 -17.34375 C 12.375 -18.101562 13.117188 -18.484375 13.953125 -18.484375 C 15.140625 -18.484375 15.90625 -18.03125 16.25 -17.125 C 16.59375 -16.226562 16.765625 -15.140625 16.765625 -13.859375 C 16.765625 -12.429688 16.410156 -10.820312 15.703125 -9.03125 C 14.992188 -7.25 14.03125 -5.578125 12.8125 -4.015625 C 13.15625 -3.734375 13.535156 -3.59375 13.953125 -3.59375 C 14.859375 -3.59375 15.804688 -4.039062 16.796875 -4.9375 C 17.785156 -5.84375 18.785156 -7.007812 19.796875 -8.4375 L 20.78125 -9.84375 C 20.882812 -9.976562 20.972656 -10.046875 21.046875 -10.046875 C 21.179688 -10.046875 21.304688 -9.953125 21.421875 -9.765625 C 21.546875 -9.578125 21.609375 -9.394531 21.609375 -9.21875 C 21.609375 -9.082031 21.578125 -8.960938 21.515625 -8.859375 L 20.3125 -7.140625 C 19.195312 -5.578125 18.109375 -4.367188 17.046875 -3.515625 C 15.992188 -2.660156 14.929688 -2.234375 13.859375 -2.234375 C 13.128906 -2.234375 12.46875 -2.441406 11.875 -2.859375 C 10.726562 -1.578125 9.503906 -0.554688 8.203125 0.203125 C 6.898438 0.972656 5.609375 1.359375 4.328125 1.359375 Z M 11.828125 -5.625 C 12.378906 -6.425781 12.90625 -7.46875 13.40625 -8.75 C 13.914062 -10.03125 14.332031 -11.304688 14.65625 -12.578125 C 14.988281 -13.847656 15.15625 -14.878906 15.15625 -15.671875 C 15.15625 -16.128906 15.078125 -16.476562 14.921875 -16.71875 C 14.765625 -16.957031 14.546875 -17.078125 14.265625 -17.078125 C 13.921875 -17.078125 13.570312 -16.894531 13.21875 -16.53125 C 12.875 -16.164062 12.582031 -15.640625 12.34375 -14.953125 C 12.03125 -14.117188 11.785156 -13.171875 11.609375 -12.109375 C 11.441406 -11.046875 11.359375 -10.015625 11.359375 -9.015625 C 11.359375 -7.691406 11.515625 -6.5625 11.828125 -5.625 Z M 5.046875 0.046875 C 6.648438 0.046875 8.546875 -1.335938 10.734375 -4.109375 C 10.316406 -4.804688 9.992188 -5.625 9.765625 -6.5625 C 9.535156 -7.5 9.421875 -8.503906 9.421875 -9.578125 C 9.421875 -11.390625 9.679688 -13.039062 10.203125 -14.53125 C 9.335938 -13.664062 8.410156 -12.519531 7.421875 -11.09375 C 6.429688 -9.664062 5.578125 -8.109375 4.859375 -6.421875 C 4.148438 -4.742188 3.796875 -3.140625 3.796875 -1.609375 C 3.796875 -1.085938 3.898438 -0.679688 4.109375 -0.390625 C 4.316406 -0.0976562 4.628906 0.046875 5.046875 0.046875 Z M 5.046875 0.046875 "/></g></g></g><g fill="#fdfdfd" fill-opacity="1"><g transform="translate(316.653673, 106.484341)"><g><path d="M 6.765625 1.359375 C 5.453125 1.359375 4.300781 1.125 3.3125 0.65625 C 2.320312 0.1875 1.566406 -0.445312 1.046875 -1.25 C 0.523438 -2.050781 0.265625 -2.921875 0.265625 -3.859375 C 0.265625 -4.335938 0.304688 -4.695312 0.390625 -4.9375 C 0.472656 -5.1875 0.535156 -5.3125 0.578125 -5.3125 C 0.679688 -5.3125 0.785156 -5.101562 0.890625 -4.6875 C 1.023438 -4.195312 1.359375 -3.726562 1.890625 -3.28125 C 2.429688 -2.832031 3.082031 -2.457031 3.84375 -2.15625 C 4.613281 -1.863281 5.363281 -1.71875 6.09375 -1.71875 C 7.03125 -1.71875 7.765625 -1.984375 8.296875 -2.515625 C 8.835938 -3.054688 9.109375 -3.898438 9.109375 -5.046875 C 9.109375 -5.878906 9.003906 -6.660156 8.796875 -7.390625 C 8.585938 -8.117188 8.273438 -8.9375 7.859375 -9.84375 C 7.546875 -10.539062 7.300781 -11.15625 7.125 -11.6875 C 6.957031 -12.226562 6.835938 -12.796875 6.765625 -13.390625 C 6.316406 -12.660156 5.953125 -12.085938 5.671875 -11.671875 C 4.316406 -9.585938 3.34375 -8.15625 2.75 -7.375 C 2.164062 -6.59375 1.769531 -6.203125 1.5625 -6.203125 C 1.457031 -6.203125 1.359375 -6.28125 1.265625 -6.4375 C 1.179688 -6.59375 1.140625 -6.753906 1.140625 -6.921875 C 1.140625 -7.097656 1.210938 -7.273438 1.359375 -7.453125 C 2.222656 -8.660156 3.316406 -10.359375 4.640625 -12.546875 C 5.429688 -13.941406 6.109375 -15.054688 6.671875 -15.890625 C 7.640625 -17.378906 8.554688 -18.425781 9.421875 -19.03125 C 10.296875 -19.644531 11.285156 -19.953125 12.390625 -19.953125 C 13.222656 -19.953125 13.914062 -19.742188 14.46875 -19.328125 C 15.03125 -18.910156 15.3125 -18.285156 15.3125 -17.453125 C 15.3125 -17.097656 15.273438 -16.804688 15.203125 -16.578125 C 15.140625 -16.359375 15.035156 -16.25 14.890625 -16.25 C 14.859375 -16.25 14.789062 -16.300781 14.6875 -16.40625 C 14.476562 -16.613281 14.273438 -16.757812 14.078125 -16.84375 C 13.890625 -16.9375 13.585938 -16.984375 13.171875 -16.984375 C 12.097656 -16.984375 11.203125 -16.738281 10.484375 -16.25 C 9.773438 -15.757812 9.253906 -15.175781 8.921875 -14.5 C 8.597656 -13.820312 8.4375 -13.207031 8.4375 -12.65625 C 8.4375 -11.925781 8.554688 -11.210938 8.796875 -10.515625 C 9.046875 -9.828125 9.394531 -8.976562 9.84375 -7.96875 C 10.332031 -6.894531 10.695312 -5.992188 10.9375 -5.265625 C 11.175781 -4.535156 11.296875 -3.769531 11.296875 -2.96875 C 11.296875 -2.519531 11.242188 -2.085938 11.140625 -1.671875 C 12.359375 -2.609375 13.347656 -3.492188 14.109375 -4.328125 C 14.878906 -5.160156 15.90625 -6.410156 17.1875 -8.078125 C 17.5 -8.523438 17.8125 -8.921875 18.125 -9.265625 C 18.332031 -9.515625 18.523438 -9.640625 18.703125 -9.640625 C 18.835938 -9.640625 18.945312 -9.585938 19.03125 -9.484375 C 19.125 -9.378906 19.171875 -9.238281 19.171875 -9.0625 C 19.171875 -8.957031 19.046875 -8.679688 18.796875 -8.234375 C 18.484375 -7.742188 17.976562 -7.019531 17.28125 -6.0625 C 16.59375 -5.113281 16.003906 -4.359375 15.515625 -3.796875 C 12.535156 -0.359375 9.617188 1.359375 6.765625 1.359375 Z M 6.765625 1.359375 "/></g></g></g><g fill="#fdfdfd" fill-opacity="1"><g transform="translate(332.068795, 106.484341)"><g><path d="M 6.609375 0.78125 C 5.117188 0.78125 3.878906 0.414062 2.890625 -0.3125 C 1.898438 -1.039062 1.40625 -2.304688 1.40625 -4.109375 C 1.40625 -5.816406 2.046875 -7.84375 3.328125 -10.1875 C 4.617188 -12.53125 6.234375 -14.539062 8.171875 -16.21875 C 10.117188 -17.90625 12.046875 -18.75 13.953125 -18.75 C 14.929688 -18.75 15.65625 -18.492188 16.125 -17.984375 C 16.59375 -17.484375 16.828125 -16.835938 16.828125 -16.046875 C 16.828125 -14.648438 16.15625 -13.238281 14.8125 -11.8125 C 13.476562 -10.394531 11.875 -9.222656 10 -8.296875 C 8.125 -7.378906 6.507812 -6.921875 5.15625 -6.921875 C 4.769531 -6.054688 4.578125 -5.242188 4.578125 -4.484375 C 4.578125 -3.441406 4.75 -2.609375 5.09375 -1.984375 C 5.445312 -1.359375 6.144531 -1.046875 7.1875 -1.046875 C 8.675781 -1.046875 10.082031 -1.441406 11.40625 -2.234375 C 12.726562 -3.035156 13.925781 -4.023438 15 -5.203125 C 16.070312 -6.390625 17.234375 -7.867188 18.484375 -9.640625 C 18.628906 -9.804688 18.769531 -9.890625 18.90625 -9.890625 C 19.007812 -9.890625 19.09375 -9.820312 19.15625 -9.6875 C 19.226562 -9.550781 19.265625 -9.394531 19.265625 -9.21875 C 19.265625 -8.976562 19.175781 -8.691406 19 -8.359375 C 18.832031 -8.023438 18.523438 -7.566406 18.078125 -6.984375 C 16.785156 -5.210938 15.554688 -3.769531 14.390625 -2.65625 C 13.234375 -1.539062 12.019531 -0.6875 10.75 -0.09375 C 9.488281 0.488281 8.109375 0.78125 6.609375 0.78125 Z M 5.625 -7.96875 C 6.769531 -8.039062 8.085938 -8.5625 9.578125 -9.53125 C 11.078125 -10.5 12.375 -11.59375 13.46875 -12.8125 C 14.5625 -14.03125 15.109375 -15.003906 15.109375 -15.734375 C 15.109375 -16.210938 14.898438 -16.453125 14.484375 -16.453125 C 13.753906 -16.453125 12.816406 -16.035156 11.671875 -15.203125 C 10.523438 -14.367188 9.394531 -13.289062 8.28125 -11.96875 C 7.164062 -10.65625 6.28125 -9.320312 5.625 -7.96875 Z M 5.625 -7.96875 "/></g></g></g><g fill="#fdfdfd" fill-opacity="1"><g transform="translate(15.000002, 85.228507)"><g><path d="M 37.78125 -30.125 C 37.78125 -27.550781 37.191406 -25.195312 36.015625 -23.0625 C 34.835938 -20.9375 33.023438 -19.21875 30.578125 -17.90625 C 28.128906 -16.601562 25.085938 -15.953125 21.453125 -15.953125 L 14.75 -15.953125 L 14.75 0 L 3.921875 0 L 3.921875 -44.4375 L 21.453125 -44.4375 C 25.003906 -44.4375 28 -43.820312 30.4375 -42.59375 C 32.882812 -41.375 34.71875 -39.6875 35.9375 -37.53125 C 37.164062 -35.382812 37.78125 -32.914062 37.78125 -30.125 Z M 20.640625 -24.5625 C 22.703125 -24.5625 24.238281 -25.046875 25.25 -26.015625 C 26.269531 -26.984375 26.78125 -28.351562 26.78125 -30.125 C 26.78125 -31.894531 26.269531 -33.265625 25.25 -34.234375 C 24.238281 -35.210938 22.703125 -35.703125 20.640625 -35.703125 L 14.75 -35.703125 L 14.75 -24.5625 Z M 20.640625 -24.5625 "/></g></g></g><g fill="#fdfdfd" fill-opacity="1"><g transform="translate(57.786652, 85.228507)"><g><path d="M 54.25 -44.4375 L 54.25 0 L 43.421875 0 L 43.421875 -26.640625 L 33.484375 0 L 24.75 0 L 14.75 -26.71875 L 14.75 0 L 3.921875 0 L 3.921875 -44.4375 L 16.703125 -44.4375 L 29.1875 -13.671875 L 41.515625 -44.4375 Z M 54.25 -44.4375 "/></g></g></g><g fill="#fdfdfd" fill-opacity="1"><g transform="translate(119.181443, 85.228507)"><g><path d="M 45.640625 -44.4375 L 29.875 0 L 16.328125 0 L 0.5625 -44.4375 L 12.09375 -44.4375 L 23.109375 -10.890625 L 34.1875 -44.4375 Z M 45.640625 -44.4375 "/></g></g></g><g fill="#b2d19a" fill-opacity="1"><g transform="translate(168.679681, 85.228507)"><g><path d="M 2.09375 -22.28125 C 2.09375 -26.664062 3.039062 -30.578125 4.9375 -34.015625 C 6.832031 -37.460938 9.476562 -40.144531 12.875 -42.0625 C 16.269531 -43.976562 20.125 -44.9375 24.4375 -44.9375 C 29.707031 -44.9375 34.21875 -43.539062 37.96875 -40.75 C 41.726562 -37.96875 44.242188 -34.175781 45.515625 -29.375 L 33.609375 -29.375 C 32.722656 -31.226562 31.46875 -32.640625 29.84375 -33.609375 C 28.21875 -34.578125 26.375 -35.0625 24.3125 -35.0625 C 20.976562 -35.0625 18.273438 -33.898438 16.203125 -31.578125 C 14.140625 -29.265625 13.109375 -26.164062 13.109375 -22.28125 C 13.109375 -18.394531 14.140625 -15.289062 16.203125 -12.96875 C 18.273438 -10.65625 20.976562 -9.5 24.3125 -9.5 C 26.375 -9.5 28.21875 -9.984375 29.84375 -10.953125 C 31.46875 -11.921875 32.722656 -13.332031 33.609375 -15.1875 L 45.515625 -15.1875 C 44.242188 -10.375 41.726562 -6.585938 37.96875 -3.828125 C 34.21875 -1.066406 29.707031 0.3125 24.4375 0.3125 C 20.125 0.3125 16.269531 -0.644531 12.875 -2.5625 C 9.476562 -4.476562 6.832031 -7.144531 4.9375 -10.5625 C 3.039062 -13.988281 2.09375 -17.894531 2.09375 -22.28125 Z M 2.09375 -22.28125 "/></g></g></g><g fill="#b2d19a" fill-opacity="1"><g transform="translate(220.200761, 85.228507)"><g><path d="M 2.09375 -22.28125 C 2.09375 -26.664062 3.039062 -30.578125 4.9375 -34.015625 C 6.832031 -37.460938 9.476562 -40.144531 12.875 -42.0625 C 16.269531 -43.976562 20.125 -44.9375 24.4375 -44.9375 C 29.707031 -44.9375 34.21875 -43.539062 37.96875 -40.75 C 41.726562 -37.96875 44.242188 -34.175781 45.515625 -29.375 L 33.609375 -29.375 C 32.722656 -31.226562 31.46875 -32.640625 29.84375 -33.609375 C 28.21875 -34.578125 26.375 -35.0625 24.3125 -35.0625 C 20.976562 -35.0625 18.273438 -33.898438 16.203125 -31.578125 C 14.140625 -29.265625 13.109375 -26.164062 13.109375 -22.28125 C 13.109375 -18.394531 14.140625 -15.289062 16.203125 -12.96875 C 18.273438 -10.65625 20.976562 -9.5 24.3125 -9.5 C 26.375 -9.5 28.21875 -9.984375 29.84375 -10.953125 C 31.46875 -11.921875 32.722656 -13.332031 33.609375 -15.1875 L 45.515625 -15.1875 C 44.242188 -10.375 41.726562 -6.585938 37.96875 -3.828125 C 34.21875 -1.066406 29.707031 0.3125 24.4375 0.3125 C 20.125 0.3125 16.269531 -0.644531 12.875 -2.5625 C 9.476562 -4.476562 6.832031 -7.144531 4.9375 -10.5625 C 3.039062 -13.988281 2.09375 -17.894531 2.09375 -22.28125 Z M 2.09375 -22.28125 "/></g></g></g><g fill="#b2d19a" fill-opacity="1"><g transform="translate(271.721842, 85.228507)"><g><path d="M 2.09375 -22.28125 C 2.09375 -26.664062 3.039062 -30.578125 4.9375 -34.015625 C 6.832031 -37.460938 9.476562 -40.144531 12.875 -42.0625 C 16.269531 -43.976562 20.125 -44.9375 24.4375 -44.9375 C 29.707031 -44.9375 34.21875 -43.539062 37.96875 -40.75 C 41.726562 -37.96875 44.242188 -34.175781 45.515625 -29.375 L 33.609375 -29.375 C 32.722656 -31.226562 31.46875 -32.640625 29.84375 -33.609375 C 28.21875 -34.578125 26.375 -35.0625 24.3125 -35.0625 C 20.976562 -35.0625 18.273438 -33.898438 16.203125 -31.578125 C 14.140625 -29.265625 13.109375 -26.164062 13.109375 -22.28125 C 13.109375 -18.394531 14.140625 -15.289062 16.203125 -12.96875 C 18.273438 -10.65625 20.976562 -9.5 24.3125 -9.5 C 26.375 -9.5 28.21875 -9.984375 29.84375 -10.953125 C 31.46875 -11.921875 32.722656 -13.332031 33.609375 -15.1875 L 45.515625 -15.1875 C 44.242188 -10.375 41.726562 -6.585938 37.96875 -3.828125 C 34.21875 -1.066406 29.707031 0.3125 24.4375 0.3125 C 20.125 0.3125 16.269531 -0.644531 12.875 -2.5625 C 9.476562 -4.476562 6.832031 -7.144531 4.9375 -10.5625 C 3.039062 -13.988281 2.09375 -17.894531 2.09375 -22.28125 Z M 2.09375 -22.28125 "/></g></g></g><g fill="#b2d19a" fill-opacity="1"><g transform="translate(17.78846, 107.715452)"><g><path d="M 16.234375 0 L 12.21875 0 L 5.484375 -10.1875 L 5.484375 0 L 1.453125 0 L 1.453125 -16.515625 L 5.484375 -16.515625 L 12.21875 -6.28125 L 12.21875 -16.515625 L 16.234375 -16.515625 Z M 16.234375 0 "/></g></g></g><g fill="#b2d19a" fill-opacity="1"><g transform="translate(37.202633, 107.715452)"><g><path d="M 13.84375 -6.78125 C 13.84375 -6.40625 13.816406 -6.007812 13.765625 -5.59375 L 4.65625 -5.59375 C 4.71875 -4.78125 4.976562 -4.15625 5.4375 -3.71875 C 5.90625 -3.289062 6.476562 -3.078125 7.15625 -3.078125 C 8.15625 -3.078125 8.851562 -3.503906 9.25 -4.359375 L 13.53125 -4.359375 C 13.3125 -3.492188 12.914062 -2.710938 12.34375 -2.015625 C 11.769531 -1.328125 11.050781 -0.785156 10.1875 -0.390625 C 9.320312 -0.00390625 8.359375 0.1875 7.296875 0.1875 C 6.003906 0.1875 4.859375 -0.0820312 3.859375 -0.625 C 2.859375 -1.175781 2.070312 -1.960938 1.5 -2.984375 C 0.9375 -4.003906 0.65625 -5.195312 0.65625 -6.5625 C 0.65625 -7.925781 0.929688 -9.117188 1.484375 -10.140625 C 2.046875 -11.160156 2.828125 -11.941406 3.828125 -12.484375 C 4.835938 -13.035156 5.992188 -13.3125 7.296875 -13.3125 C 8.566406 -13.3125 9.695312 -13.046875 10.6875 -12.515625 C 11.675781 -11.984375 12.445312 -11.222656 13 -10.234375 C 13.5625 -9.242188 13.84375 -8.09375 13.84375 -6.78125 Z M 9.71875 -7.828125 C 9.71875 -8.523438 9.484375 -9.078125 9.015625 -9.484375 C 8.546875 -9.890625 7.957031 -10.09375 7.25 -10.09375 C 6.570312 -10.09375 6 -9.894531 5.53125 -9.5 C 5.070312 -9.113281 4.789062 -8.554688 4.6875 -7.828125 Z M 9.71875 -7.828125 "/></g></g></g><g fill="#b2d19a" fill-opacity="1"><g transform="translate(53.416543, 107.715452)"><g><path d="M 12.421875 -11.296875 C 12.128906 -11.847656 11.703125 -12.265625 11.140625 -12.546875 C 10.585938 -12.835938 9.929688 -12.984375 9.171875 -12.984375 C 7.867188 -12.984375 6.828125 -12.554688 6.046875 -11.703125 C 5.265625 -10.847656 4.875 -9.707031 4.875 -8.28125 C 4.875 -6.757812 5.285156 -5.570312 6.109375 -4.71875 C 6.929688 -3.863281 8.0625 -3.4375 9.5 -3.4375 C 10.488281 -3.4375 11.320312 -3.6875 12 -4.1875 C 12.6875 -4.6875 13.1875 -5.410156 13.5 -6.359375 L 8.40625 -6.359375 L 8.40625 -9.3125 L 17.15625 -9.3125 L 17.15625 -5.578125 C 16.851562 -4.578125 16.34375 -3.644531 15.625 -2.78125 C 14.914062 -1.914062 14.007812 -1.210938 12.90625 -0.671875 C 11.8125 -0.140625 10.578125 0.125 9.203125 0.125 C 7.566406 0.125 6.109375 -0.234375 4.828125 -0.953125 C 3.554688 -1.671875 2.5625 -2.660156 1.84375 -3.921875 C 1.132812 -5.191406 0.78125 -6.644531 0.78125 -8.28125 C 0.78125 -9.914062 1.132812 -11.367188 1.84375 -12.640625 C 2.5625 -13.921875 3.554688 -14.914062 4.828125 -15.625 C 6.097656 -16.34375 7.546875 -16.703125 9.171875 -16.703125 C 11.148438 -16.703125 12.816406 -16.222656 14.171875 -15.265625 C 15.535156 -14.316406 16.4375 -12.992188 16.875 -11.296875 Z M 12.421875 -11.296875 "/></g></g></g><g fill="#b2d19a" fill-opacity="1"><g transform="translate(73.066037, 107.715452)"><g><path d="M 5.484375 -10.9375 C 5.953125 -11.664062 6.539062 -12.234375 7.25 -12.640625 C 7.957031 -13.054688 8.738281 -13.265625 9.59375 -13.265625 L 9.59375 -9.015625 L 8.5 -9.015625 C 7.488281 -9.015625 6.734375 -8.796875 6.234375 -8.359375 C 5.734375 -7.929688 5.484375 -7.175781 5.484375 -6.09375 L 5.484375 0 L 1.453125 0 L 1.453125 -13.125 L 5.484375 -13.125 Z M 5.484375 -10.9375 "/></g></g></g><g fill="#b2d19a" fill-opacity="1"><g transform="translate(84.856069, 107.715452)"><g><path d="M 7.4375 0.1875 C 6.144531 0.1875 4.984375 -0.0820312 3.953125 -0.625 C 2.929688 -1.175781 2.125 -1.960938 1.53125 -2.984375 C 0.945312 -4.003906 0.65625 -5.195312 0.65625 -6.5625 C 0.65625 -7.914062 0.953125 -9.101562 1.546875 -10.125 C 2.148438 -11.15625 2.96875 -11.941406 4 -12.484375 C 5.03125 -13.035156 6.191406 -13.3125 7.484375 -13.3125 C 8.765625 -13.3125 9.921875 -13.035156 10.953125 -12.484375 C 11.992188 -11.941406 12.8125 -11.15625 13.40625 -10.125 C 14.007812 -9.101562 14.3125 -7.914062 14.3125 -6.5625 C 14.3125 -5.21875 14.007812 -4.03125 13.40625 -3 C 12.800781 -1.96875 11.972656 -1.175781 10.921875 -0.625 C 9.878906 -0.0820312 8.71875 0.1875 7.4375 0.1875 Z M 7.4375 -3.296875 C 8.207031 -3.296875 8.863281 -3.578125 9.40625 -4.140625 C 9.945312 -4.703125 10.21875 -5.507812 10.21875 -6.5625 C 10.21875 -7.613281 9.953125 -8.421875 9.421875 -8.984375 C 8.898438 -9.554688 8.253906 -9.84375 7.484375 -9.84375 C 6.703125 -9.84375 6.050781 -9.5625 5.53125 -9 C 5.007812 -8.445312 4.75 -7.632812 4.75 -6.5625 C 4.75 -5.507812 5.003906 -4.703125 5.515625 -4.140625 C 6.023438 -3.578125 6.664062 -3.296875 7.4375 -3.296875 Z M 7.4375 -3.296875 "/></g></g></g><g fill="#b2d19a" fill-opacity="1"><g transform="translate(101.564151, 107.715452)"><g><path d="M 20.3125 -13.125 L 16.75 0 L 12.3125 0 L 10.234375 -8.515625 L 8.09375 0 L 3.671875 0 L 0.09375 -13.125 L 4.125 -13.125 L 5.984375 -3.734375 L 8.1875 -13.125 L 12.453125 -13.125 L 14.6875 -3.78125 L 16.515625 -13.125 Z M 20.3125 -13.125 "/></g></g></g><g fill="#b2d19a" fill-opacity="1"><g transform="translate(123.6609, 107.715452)"><g><path d="M 13.34375 -16.515625 L 13.34375 -13.296875 L 8.96875 -13.296875 L 8.96875 0 L 4.9375 0 L 4.9375 -13.296875 L 0.5625 -13.296875 L 0.5625 -16.515625 Z M 13.34375 -16.515625 "/></g></g></g><g fill="#b2d19a" fill-opacity="1"><g transform="translate(139.286532, 107.715452)"><g><path d="M 3.484375 -14.5 C 2.773438 -14.5 2.195312 -14.707031 1.75 -15.125 C 1.300781 -15.539062 1.078125 -16.050781 1.078125 -16.65625 C 1.078125 -17.28125 1.300781 -17.800781 1.75 -18.21875 C 2.195312 -18.632812 2.773438 -18.84375 3.484375 -18.84375 C 4.171875 -18.84375 4.738281 -18.632812 5.1875 -18.21875 C 5.632812 -17.800781 5.859375 -17.28125 5.859375 -16.65625 C 5.859375 -16.050781 5.632812 -15.539062 5.1875 -15.125 C 4.738281 -14.707031 4.171875 -14.5 3.484375 -14.5 Z M 5.484375 -13.125 L 5.484375 0 L 1.453125 0 L 1.453125 -13.125 Z M 5.484375 -13.125 "/></g></g></g><g fill="#b2d19a" fill-opacity="1"><g transform="translate(147.946899, 107.715452)"><g><path d="M 7.4375 0.1875 C 6.144531 0.1875 4.984375 -0.0820312 3.953125 -0.625 C 2.929688 -1.175781 2.125 -1.960938 1.53125 -2.984375 C 0.945312 -4.003906 0.65625 -5.195312 0.65625 -6.5625 C 0.65625 -7.914062 0.953125 -9.101562 1.546875 -10.125 C 2.148438 -11.15625 2.96875 -11.941406 4 -12.484375 C 5.03125 -13.035156 6.191406 -13.3125 7.484375 -13.3125 C 8.765625 -13.3125 9.921875 -13.035156 10.953125 -12.484375 C 11.992188 -11.941406 12.8125 -11.15625 13.40625 -10.125 C 14.007812 -9.101562 14.3125 -7.914062 14.3125 -6.5625 C 14.3125 -5.21875 14.007812 -4.03125 13.40625 -3 C 12.800781 -1.96875 11.972656 -1.175781 10.921875 -0.625 C 9.878906 -0.0820312 8.71875 0.1875 7.4375 0.1875 Z M 7.4375 -3.296875 C 8.207031 -3.296875 8.863281 -3.578125 9.40625 -4.140625 C 9.945312 -4.703125 10.21875 -5.507812 10.21875 -6.5625 C 10.21875 -7.613281 9.953125 -8.421875 9.421875 -8.984375 C 8.898438 -9.554688 8.253906 -9.84375 7.484375 -9.84375 C 6.703125 -9.84375 6.050781 -9.5625 5.53125 -9 C 5.007812 -8.445312 4.75 -7.632812 4.75 -6.5625 C 4.75 -5.507812 5.003906 -4.703125 5.515625 -4.140625 C 6.023438 -3.578125 6.664062 -3.296875 7.4375 -3.296875 Z M 7.4375 -3.296875 "/></g></g></g></svg>